<svg xmlns="http://www.w3.org/2000/svg" viewBox="0 0 165 33"><defs><style>.cls-1{fill:#f33222;}</style></defs><g id="Layer_4" data-name="Layer 4"><path class="cls-1" d="M13.84,27c-.82,3.41-2.69,5.74-6.45,5.74-4.11,0-7-3-7-9.42,0-6,2.59-9.41,7-9.41,3.4,0,5.38,2,6.19,5.33l-1.87.55c-.66-2.58-1.83-4.16-4.57-4.16S2.41,18.05,2.41,23.3,4.5,31,7.54,31c2.82,0,3.91-2.13,4.47-4.36Z"/><path class="cls-1" d="M16.28,21.81A5.4,5.4,0,0,1,21.23,19c2.23,0,4.57,1.07,4.57,4v6.65a10.25,10.25,0,0,0,.3,2.85H24.22L24,30.64a5.91,5.91,0,0,1-4.37,2.08,3.48,3.48,0,0,1-3.75-3.63c0-2.89,2.21-4.34,8.07-5.38V23c0-1.75-1.14-2.41-2.72-2.41a3.39,3.39,0,0,0-3.37,2.05ZM24,25.33c-4.19.74-6.25,2-6.25,3.79a2.18,2.18,0,0,0,2.19,2A6.15,6.15,0,0,0,24,29Z"/><path class="cls-1" d="M30.45,32.47V20.84H28.21V19.27h2.24v-1.5c0-3.12,1.06-3.88,3.22-3.88.53,0,1.09.07,1.62.12v1.63A12.64,12.64,0,0,0,34,15.46c-1.24,0-1.7.4-1.7,1.88v1.93h2.87v1.57H32.27V32.47Z"/><path class="cls-1" d="M47.81,29.65a5.29,5.29,0,0,1-5.08,3.07c-2.94,0-5.73-2-5.73-6.85C37,21.6,39.13,19,42.38,19c2.74,0,5,1.78,5,6v1.22H38.82c0,2.9,1.73,4.93,3.91,4.93a4.09,4.09,0,0,0,3.66-2.24Zm-2.23-5c0-2.44-1.17-4.06-3.15-4.06-2.21,0-3.4,1.62-3.55,4.06Zm.12-10.51-3.32,3.6h-1.7l2.26-3.6Z"/><path class="cls-1" d="M158.36.4V1h-3.22V3.23h2.29v.62h-2.29V6.38h3.41V7h-4.14V.4Z"/><path class="cls-1" d="M160,7V.4h1l2.88,5.08h0V.4h.66V7H164l-3.34-5.89h0V7Z"/><path class="cls-1" d="M86,.14V32.41H82.75V.14Z"/><path class="cls-1" d="M95.17,9.17V1.53h3.22V9.17h5.36v2.77H98.39V28.48c0,1.07.76,1.61,2.63,1.61a17.25,17.25,0,0,0,2.86-.23V32.5a14.65,14.65,0,0,1-3.75.36c-3.49,0-5-.9-5-3.85V11.94h-3.8V9.17Z"/><path class="cls-1" d="M108,13.64a9.53,9.53,0,0,1,8.72-4.92c3.93,0,8,1.88,8,7V27.41a18.09,18.09,0,0,0,.54,5H122l-.35-3.22a10.39,10.39,0,0,1-7.69,3.67c-3.58,0-6.62-2.15-6.62-6.39,0-5.1,3.89-7.65,14.22-9.48V15.74c0-3.08-2-4.25-4.79-4.25a6,6,0,0,0-5.94,3.62Zm13.55,6.21c-7.38,1.3-11,3.44-11,6.66a3.82,3.82,0,0,0,3.85,3.58c2.32,0,5.27-1.7,7.15-3.85Z"/><path class="cls-1" d="M135,9.17V12.3h.09A9.52,9.52,0,0,1,142,8.72c3.44,0,6.7,1.79,6.7,6.8V32.41h-3.21V15.61c0-3.09-1.48-4.12-3.8-4.12s-5.19,2-6.66,3.53V32.41h-3.22V9.17Z"/><polygon class="cls-1" points="79.88 32.74 75.53 32.74 72.02 22.64 64.71 22.64 64.62 19.6 70.98 19.6 65.59 2.97 65.03 2.97 59.69 19.48 59.64 19.6 58.61 22.64 64.68 22.64 64.68 25.67 57.56 25.67 55.09 32.74 50.75 32.74 62.23 0.47 68.39 0.47 79.88 32.74"/></g></svg>
