<svg xmlns="http://www.w3.org/2000/svg" viewBox="0 0 176 38"><defs><style>.cls-1{fill:#181f32;}.cls-2{fill:#f0f0ef;}</style></defs><g id="Layer_4" data-name="Layer 4"><rect class="cls-1" x="0.18" y="0.38" width="175.64" height="37.24" rx="6.44"/><path class="cls-2" d="M41.94,20.54c-.16-2.92-.34-6.42-.31-9h-.1C40.82,14,40,16.57,38.9,19.45L35.21,29.59H33.16l-3.38-9.95c-1-2.95-1.83-5.64-2.41-8.12H27.3c-.06,2.6-.21,6.1-.4,9.24l-.56,9H23.77l1.46-20.9h3.44l3.56,10.11c.87,2.57,1.58,4.86,2.11,7h.09c.53-2.1,1.28-4.4,2.21-7L40.36,8.82H43.8l1.3,20.9H42.47Z"/><path class="cls-2" d="M50.86,22.71c.06,3.69,2.42,5.21,5.15,5.21a9.74,9.74,0,0,0,4.15-.78l.47,2a12.24,12.24,0,0,1-5,.93c-4.62,0-7.38-3-7.38-7.57s2.66-8.09,7-8.09c4.89,0,6.2,4.31,6.2,7.07a10.16,10.16,0,0,1-.1,1.27Zm8-1.95c0-1.74-.71-4.44-3.78-4.44-2.76,0-4,2.54-4.19,4.44Z"/><path class="cls-2" d="M64.87,18.77c0-1.55,0-2.82-.12-4.06h2.42l.15,2.48h.07a5.5,5.5,0,0,1,5-2.82c2.07,0,5.3,1.24,5.3,6.39v9H74.92V21.06c0-2.41-.9-4.43-3.47-4.43a3.87,3.87,0,0,0-3.66,2.79,3.77,3.77,0,0,0-.19,1.27v9H64.87Z"/><path class="cls-2" d="M94.64,25.62c0,1.55,0,2.92.12,4.1H92.34l-.15-2.45h-.07a5.63,5.63,0,0,1-5,2.79c-2.35,0-5.18-1.31-5.18-6.58V14.71h2.73V23c0,2.85.87,4.77,3.35,4.77a4,4,0,0,0,3.6-2.48,4.09,4.09,0,0,0,.25-1.39V14.71h2.73Z"/><path class="cls-2" d="M105.73,19.61c0-1.92-.06-3.47-.12-4.9h2.45l.12,2.57h.06a5.9,5.9,0,0,1,5.33-2.91c3.63,0,6.36,3.07,6.36,7.63,0,5.39-3.29,8.06-6.82,8.06a5.27,5.27,0,0,1-4.62-2.36h-.06v8.15h-2.7Zm2.7,4a6.29,6.29,0,0,0,.12,1.11,4.21,4.21,0,0,0,4.09,3.2c2.89,0,4.56-2.36,4.56-5.8,0-3-1.58-5.58-4.46-5.58a4.36,4.36,0,0,0-4.13,3.38,4.52,4.52,0,0,0-.18,1.11Z"/><path class="cls-2" d="M136.33,7.7V25.84c0,1.33,0,2.85.12,3.88H134l-.12-2.61h-.06a5.55,5.55,0,0,1-5.12,2.95c-3.63,0-6.42-3.07-6.42-7.63,0-5,3.07-8.06,6.73-8.06a5,5,0,0,1,4.53,2.29h.06v-9ZM133.6,20.82a5,5,0,0,0-.12-1.15,4,4,0,0,0-3.94-3.16c-2.82,0-4.5,2.48-4.5,5.8,0,3,1.49,5.55,4.44,5.55a4.1,4.1,0,0,0,4-3.26,4.86,4.86,0,0,0,.12-1.18Z"/><path class="cls-2" d="M141.13,29.72V16.79H139V14.71h2.11V14a7.08,7.08,0,0,1,1.74-5.24,5.19,5.19,0,0,1,3.66-1.4,6.47,6.47,0,0,1,2.32.43l-.37,2.11a4.16,4.16,0,0,0-1.74-.34c-2.32,0-2.91,2-2.91,4.34v.81h3.63v2.08h-3.63V29.72Z"/></g></svg>
